<svg width="29" height="27" viewBox="0 0 29 27" fill="none" xmlns="http://www.w3.org/2000/svg">
<path d="M14.9181 0.00952911C17.2678 0.00952911 19.7408 8.11429 19.7408 8.11429C19.7408 8.11429 28.1812 7.96826 28.9054 10.2127C29.6327 12.4571 22.7197 17.3206 22.7197 17.3206C22.7197 17.3206 25.4647 25.3333 23.5641 26.7206C21.6635 28.1079 14.9181 23.0095 14.9181 23.0095C14.9181 23.0095 8.1759 28.1079 6.27214 26.7206C4.37154 25.3333 7.11649 17.3206 7.11649 17.3206C7.11649 17.3206 0.203504 12.454 0.930855 10.2127C1.6582 7.96826 10.0986 8.11429 10.0986 8.11429C10.0986 8.11429 12.5685 0.00952911 14.9181 0.00952911Z" fill="#CF6100"/>
</svg>
