<svg width="36" height="35" viewBox="0 0 36 35" fill="none" xmlns="http://www.w3.org/2000/svg">
<path d="M17.9181 0.885727C20.8971 0.885727 24.0279 11.1556 24.0279 11.1556C24.0279 11.1556 31.6524 8.83811 34.9792 10.1048C35.9532 10.4762 35.8805 12.7143 35.4378 14.0667C34.5017 16.9048 28.626 22.6413 28.626 22.6413C28.626 22.6413 31.2855 32.9778 28.8758 34.7365C26.4661 36.4952 17.9181 30.0349 17.9181 30.0349C17.9181 30.0349 9.37333 36.4952 6.96042 34.7365C4.55068 32.9778 7.33042 22.2064 7.33042 22.2064C7.33042 22.2064 1.09735 17.7365 0.189739 13.8159C-0.0189791 12.9206 -0.268808 10.3683 0.705209 9.99684C4.03205 8.73335 11.8052 11.1556 11.8052 11.1556C11.8052 11.1556 14.9391 0.885727 17.9181 0.885727Z" fill="#FF7F0E"/>
</svg>
