<svg width="18" height="5" viewBox="0 0 18 5" fill="none" xmlns="http://www.w3.org/2000/svg">
<path d="M17.5641 4.13969C17.3965 4.2508 17.2068 4.34604 17.0044 4.37143C16.802 4.4127 16.5964 4.40953 16.3909 4.39683C15.9829 4.36508 15.5813 4.26667 15.1923 4.14604C14.4144 3.89524 13.6744 3.54286 12.9502 3.16826C12.226 2.79365 11.5303 2.42222 10.844 1.98413C10.1578 1.54286 9.48735 1.23809 8.82957 0.657141H9.00351C8.34573 1.23809 7.67214 1.54286 6.98906 1.98413C6.30282 2.42222 5.61026 2.82222 4.88291 3.19683C4.16188 3.57143 3.41872 3.90794 2.64077 4.16191C2.2518 4.28254 1.85017 4.37461 1.44222 4.40635C1.23667 4.41905 1.03111 4.41588 0.828718 4.37778C0.623163 4.35238 0.436581 4.25715 0.268974 4.14604C0.442906 4.24762 0.63265 4.32699 0.835043 4.33969C1.03427 4.36826 1.23667 4.35238 1.4359 4.33016C1.83436 4.27619 2.22017 4.15556 2.5965 4.01588C3.35231 3.73969 4.07333 3.37143 4.77855 2.97461C6.18265 2.17778 7.53932 1.28254 8.82957 0.317458L8.91496 0.253967L9.00034 0.317458C10.2938 1.28571 11.6473 2.17778 13.0514 2.97461C13.7534 3.37143 14.4776 3.73969 15.2334 4.01588C15.6097 4.15556 15.9956 4.27619 16.394 4.33016C16.5933 4.35238 16.7956 4.36826 16.9949 4.33969C17.2004 4.32064 17.387 4.24127 17.5641 4.13969Z" fill="#FFFC81"/>
</svg>
