<svg width="29" height="28" viewBox="0 0 29 28" fill="none" xmlns="http://www.w3.org/2000/svg">
<path d="M14.9181 0.428566C17.2678 0.428566 19.7408 8.53333 19.7408 8.53333C19.7408 8.53333 28.1812 8.3873 28.9086 10.6317C29.6359 12.8762 22.7229 17.7397 22.7229 17.7397C22.7229 17.7397 25.4679 25.7524 23.5673 27.1397C21.6667 28.527 14.9213 23.4286 14.9213 23.4286C14.9213 23.4286 8.17906 28.527 6.2753 27.1397C4.3747 25.7524 7.11966 17.7397 7.11966 17.7397C7.11966 17.7397 0.203504 12.8762 0.930855 10.6317C1.65821 8.3873 10.0986 8.53333 10.0986 8.53333C10.0986 8.53333 12.5685 0.428566 14.9181 0.428566Z" fill="url(#paint0_linear_194_397)"/>
<defs>
<linearGradient id="paint0_linear_194_397" x1="0.877126" y1="13.9038" x2="28.96" y2="13.9038" gradientUnits="userSpaceOnUse">
<stop stop-color="#FDE329"/>
<stop offset="1" stop-color="#FFED78"/>
</linearGradient>
</defs>
</svg>
